<svg xmlns="http://www.w3.org/2000/svg" xmlns:xlink="http://www.w3.org/1999/xlink" id="Layer_1" x="0" y="0" version="1.1" viewBox="0 0 500 500" style="enable-background:new 0 0 500 500" xml:space="preserve"><style type="text/css">.st0{fill:url(#SVGID_1_)}.st1{fill:url(#SVGID_2_)}.st2{fill:url(#SVGID_3_)}.st3{fill:url(#SVGID_4_)}.st4{fill:url(#SVGID_5_)}.st5{fill:url(#SVGID_6_)}</style><linearGradient id="SVGID_1_" x1="980" x2="480" y1="499.3" y2="-.7" gradientTransform="matrix(0 -1 -1 0 500 980)" gradientUnits="userSpaceOnUse"><stop offset="0" style="stop-color:#01115c"/><stop offset="1" style="stop-color:#0034a2"/></linearGradient><polygon points="500.7 0 500.7 500 .7 500 .7 0" class="st0"/><g><linearGradient id="SVGID_2_" x1="409.525" x2="193.339" y1="214.035" y2="272.298" gradientTransform="matrix(1 0 0 -1 0 500)" gradientUnits="userSpaceOnUse"><stop offset=".144" style="stop-color:#adadad"/><stop offset=".286" style="stop-color:#cbcbcb"/><stop offset=".434" style="stop-color:#e2e2e2"/><stop offset=".594" style="stop-color:#f2f2f2"/><stop offset=".771" style="stop-color:#fcfcfc"/><stop offset="1" style="stop-color:#fff"/></linearGradient><path d="M352.3,222.3c19.8,26.4-38.2,77.5-25.2,56.4H203.6c-13.4-17.5-22.6-36.6-27-56.4H352.3z" class="st1"/><linearGradient id="SVGID_3_" x1="329.715" x2="24.128" y1="29.431" y2="455.645" gradientTransform="matrix(1 0 0 -1 0 500)" gradientUnits="userSpaceOnUse"><stop offset="0" style="stop-color:#adadad"/><stop offset=".165" style="stop-color:#cbcbcb"/><stop offset=".338" style="stop-color:#e2e2e2"/><stop offset=".525" style="stop-color:#f2f2f2"/><stop offset=".732" style="stop-color:#fcfcfc"/><stop offset="1" style="stop-color:#fff"/></linearGradient><path d="M316.5,374.6c-16.9,13.6-35.8,25.7-56.6,36.1l-9.8,4.9l-9.9-4.9c-92.9-46.6-148.4-127-148.4-215V92.3h56.7 v103.4c0,6.6,0.5,13.2,1.4,19.7c7.1,53.5,43.3,102.8,100.1,136.1c0.1,0.1,0.1,0.1,0.2,0.1c0.1,0,0.1-0.1,0.2-0.1 c0.1-0.1,0.2-0.1,0.2-0.2C270.6,362.7,292.8,370.6,316.5,374.6z" class="st2"/><linearGradient id="SVGID_4_" x1="253.93" x2="399.075" y1="93.941" y2="277.928" gradientTransform="matrix(1 0 0 -1 0 500)" gradientUnits="userSpaceOnUse"><stop offset=".154" style="stop-color:#adadad"/><stop offset=".293" style="stop-color:#cbcbcb"/><stop offset=".44" style="stop-color:#e2e2e2"/><stop offset=".598" style="stop-color:#f2f2f2"/><stop offset=".773" style="stop-color:#fcfcfc"/><stop offset="1" style="stop-color:#fff"/></linearGradient><path d="M406.5,222.3c-2.6,20.4-8.3,40.3-16.7,59.2c-15.5,34.9-40.5,66.7-73.4,93.1c-23.6-4-45.9-11.9-66.1-23.2 c7.6-4.4,14.8-9.2,21.6-14.2c0.7-0.5,1.4-0.9,2-1.5c37.8-27.3,66-67.2,78.3-113.5H406.5z" class="st3"/><linearGradient id="SVGID_5_" x1="123.411" x2="246.069" y1="232.131" y2="348.656" gradientTransform="matrix(1 0 0 -1 0 500)" gradientUnits="userSpaceOnUse"><stop offset=".144" style="stop-color:#adadad"/><stop offset=".427" style="stop-color:#c9c9c9"/><stop offset="1" style="stop-color:#fff"/></linearGradient><path d="M408.3,92.3H148.4V149h259.9V92.3z" class="st4"/><linearGradient id="SVGID_6_" x1="384.841" x2="377.687" y1="402.611" y2="291.197" gradientTransform="matrix(1 0 0 -1 0 500)" gradientUnits="userSpaceOnUse"><stop offset=".144" style="stop-color:#adadad"/><stop offset=".286" style="stop-color:#cbcbcb"/><stop offset=".434" style="stop-color:#e2e2e2"/><stop offset=".594" style="stop-color:#f2f2f2"/><stop offset=".771" style="stop-color:#fcfcfc"/><stop offset="1" style="stop-color:#fff"/></linearGradient><path d="M408.3,149v46.7c0,1.9-0.1,3.9-0.1,5.8h-56.7c0.1-1.9,0.1-3.9,0.1-5.8V149H408.3z" class="st5"/></g></svg>